<?xml version="1.0" encoding="UTF-8"?>
<!DOCTYPE svg PUBLIC "-//W3C//DTD SVG 1.1//EN" "http://www.w3.org/Graphics/SVG/1.1/DTD/svg11.dtd">
<svg xmlns="http://www.w3.org/2000/svg" version="1.1" width="512px" height="512px" style="shape-rendering:geometricPrecision; text-rendering:geometricPrecision; image-rendering:optimizeQuality; fill-rule:evenodd; clip-rule:evenodd" xmlns:xlink="http://www.w3.org/1999/xlink">
<g><path style="opacity:0.979" fill="#030202" d="M 232.5,-0.5 C 248.167,-0.5 263.833,-0.5 279.5,-0.5C 315.344,1.36811 350.344,8.20145 384.5,20C 386.956,22.5105 387.623,25.3438 386.5,28.5C 384.919,31.5866 382.419,33.2533 379,33.5C 323.462,16.4048 266.962,11.0715 209.5,17.5C 162.331,20.9449 118.998,35.4449 79.5,61C 69.4877,68.6794 60.8211,77.6794 53.5,88C 43.1667,88.3333 32.8333,88.6667 22.5,89C 19.8293,90.25 17.6626,92.0833 16,94.5C 15.0274,112.591 15.3608,130.591 17,148.5C 18.214,150.049 19.714,151.215 21.5,152C 33.8288,152.5 46.1622,152.667 58.5,152.5C 202.167,152.667 345.834,152.5 489.5,152C 493,151.167 495.167,149 496,145.5C 496.971,128.075 496.638,110.742 495,93.5C 493.363,91.1898 491.196,89.6898 488.5,89C 478.5,88.6667 468.5,88.3333 458.5,88C 444.801,69.9652 427.801,55.9652 407.5,46C 404.769,43.1034 403.769,39.6034 404.5,35.5C 407.75,31.5235 411.75,30.6901 416.5,33C 436.101,42.5943 452.768,55.9276 466.5,73C 476.226,73.1084 485.893,73.7751 495.5,75C 503.107,78.4377 508.44,83.9377 511.5,91.5C 511.5,111.167 511.5,130.833 511.5,150.5C 507.776,160.225 500.776,165.891 490.5,167.5C 492.368,188.782 483.368,203.115 463.5,210.5C 462.5,291.831 462.167,373.164 462.5,454.5C 471.173,454.334 479.84,454.5 488.5,455C 501.573,458.236 509.24,466.402 511.5,479.5C 511.5,481.833 511.5,484.167 511.5,486.5C 509.054,499.614 501.387,507.947 488.5,511.5C 332.833,511.5 177.167,511.5 21.5,511.5C 10.7326,508.113 3.39931,501.113 -0.5,490.5C -0.5,485.5 -0.5,480.5 -0.5,475.5C 2.63043,466.445 8.63043,459.945 17.5,456C 27.4343,454.605 37.4343,454.105 47.5,454.5C 47.8333,373.164 47.5,291.831 46.5,210.5C 27.4226,202.714 18.0893,188.38 18.5,167.5C 8.24067,163.914 1.90734,156.914 -0.5,146.5C -0.5,129.167 -0.5,111.833 -0.5,94.5C 1.90019,83.5987 8.56685,76.7654 19.5,74C 28.1667,73.6667 36.8333,73.3333 45.5,73C 57.4312,57.4012 72.0978,45.0679 89.5,36C 123.839,18.5547 160.173,7.55467 198.5,3C 209.979,1.75259 221.312,0.58592 232.5,-0.5 Z"/></g>
<g><path style="opacity:1" fill="#fa7e85" d="M 386.5,28.5 C 392.657,30.4411 398.657,32.7745 404.5,35.5C 403.769,39.6034 404.769,43.1034 407.5,46C 427.801,55.9652 444.801,69.9652 458.5,88C 468.5,88.3333 478.5,88.6667 488.5,89C 491.196,89.6898 493.363,91.1898 495,93.5C 496.638,110.742 496.971,128.075 496,145.5C 495.167,149 493,151.167 489.5,152C 345.834,152.5 202.167,152.667 58.5,152.5C 56.7438,148.668 55.0771,145.001 53.5,141.5C 67.8187,136.444 72.9853,126.444 69,111.5C 65.8375,105.164 61.0042,100.831 54.5,98.5C 55.9322,90.8814 60.2656,85.3814 67.5,82C 77.1609,81.5002 86.8276,81.3335 96.5,81.5C 96.0298,97.9286 96.5298,114.262 98,130.5C 98.9025,131.701 100.069,132.535 101.5,133C 110.167,133.667 118.833,133.667 127.5,133C 141.786,127.595 146.953,117.429 143,102.5C 141.285,99.5649 139.452,96.7316 137.5,94C 142.568,73.6565 134.568,63.4899 113.5,63.5C 125.896,52.1189 139.896,42.9523 155.5,36C 173.039,28.0991 191.039,21.9325 209.5,17.5C 266.962,11.0715 323.462,16.4048 379,33.5C 382.419,33.2533 384.919,31.5866 386.5,28.5 Z"/></g>
<g><path style="opacity:1" fill="#f9626c" d="M 209.5,17.5 C 191.039,21.9325 173.039,28.0991 155.5,36C 139.896,42.9523 125.896,52.1189 113.5,63.5C 98.9948,61.0071 93.3281,67.0071 96.5,81.5C 86.8276,81.3335 77.1609,81.5002 67.5,82C 60.2656,85.3814 55.9322,90.8814 54.5,98.5C 38.5386,96.8023 29.2052,103.802 26.5,119.5C 28.3069,135.579 37.3069,142.912 53.5,141.5C 55.0771,145.001 56.7438,148.668 58.5,152.5C 46.1622,152.667 33.8288,152.5 21.5,152C 19.714,151.215 18.214,150.049 17,148.5C 15.3608,130.591 15.0274,112.591 16,94.5C 17.6626,92.0833 19.8293,90.25 22.5,89C 32.8333,88.6667 43.1667,88.3333 53.5,88C 60.8211,77.6794 69.4877,68.6794 79.5,61C 118.998,35.4449 162.331,20.9449 209.5,17.5 Z"/></g>
<g><path style="opacity:1" fill="#070303" d="M 234.5,25.5 C 261.928,25.2301 289.261,26.7301 316.5,30C 329.97,32.3674 343.304,35.3674 356.5,39C 360.115,42.6591 360.448,46.6591 357.5,51C 355.634,51.9847 353.634,52.4847 351.5,52.5C 308.396,42.0945 264.729,38.5945 220.5,42C 198.986,44.5963 177.653,47.9297 156.5,52C 152.788,49.487 151.622,45.987 153,41.5C 154.214,39.9512 155.714,38.7845 157.5,38C 182.953,31.6461 208.62,27.4795 234.5,25.5 Z"/></g>
<g><path style="opacity:1" fill="#050202" d="M 113.5,63.5 C 134.568,63.4899 142.568,73.6565 137.5,94C 139.452,96.7316 141.285,99.5649 143,102.5C 146.953,117.429 141.786,127.595 127.5,133C 118.833,133.667 110.167,133.667 101.5,133C 100.069,132.535 98.9025,131.701 98,130.5C 96.5298,114.262 96.0298,97.9286 96.5,81.5C 93.3281,67.0071 98.9948,61.0071 113.5,63.5 Z"/></g>
<g><path style="opacity:1" fill="#050202" d="M 177.5,64.5 C 197.427,61.8753 211.594,69.542 220,87.5C 224.316,107.364 217.483,121.864 199.5,131C 176.919,137.126 161.419,129.293 153,107.5C 149.807,86.5393 157.974,72.2059 177.5,64.5 Z"/></g>
<g><path style="opacity:1" fill="#050202" d="M 256.5,64.5 C 278.773,61.964 293.273,71.2974 300,92.5C 300.354,120.479 286.521,133.979 258.5,133C 239.147,126.973 229.98,113.806 231,93.5C 234.404,79.268 242.904,69.6013 256.5,64.5 Z"/></g>
<g><path style="opacity:1" fill="#070303" d="M 314.5,64.5 C 317.93,64.1065 321.096,64.7732 324,66.5C 325.062,71.423 325.895,76.423 326.5,81.5C 332.35,75.8157 338.35,70.3157 344.5,65C 353.869,64.551 356.702,68.7177 353,77.5C 345.657,84.0111 338.49,90.6778 331.5,97.5C 338.849,105.683 346.683,113.35 355,120.5C 358.702,129.282 355.869,133.449 346.5,133C 339.364,126.865 332.531,120.365 326,113.5C 325.906,119.278 325.239,124.944 324,130.5C 320,134.5 316,134.5 312,130.5C 310.368,109.898 310.035,89.2311 311,68.5C 312.376,67.2949 313.542,65.9616 314.5,64.5 Z"/></g>
<g><path style="opacity:1" fill="#060303" d="M 382.5,64.5 C 392.156,63.2405 401.156,65.0738 409.5,70C 415.062,75.1626 414.729,79.8292 408.5,84C 406.833,84.6667 405.167,84.6667 403.5,84C 397.368,79.3062 390.868,78.4729 384,81.5C 383.202,83.2588 383.369,84.9255 384.5,86.5C 391.957,89.3747 399.29,92.5414 406.5,96C 418.432,106.967 418.432,117.967 406.5,129C 390.976,136.867 377.476,134.367 366,121.5C 364.045,113.209 367.212,109.709 375.5,111C 381.514,117.894 388.848,119.894 397.5,117C 401.5,114 401.5,111 397.5,108C 389.717,104.942 382.05,101.608 374.5,98C 364.338,83.7326 367.005,72.5659 382.5,64.5 Z"/></g>
<g><path style="opacity:1" fill="#eb767d" d="M 111.5,78.5 C 114.85,78.335 118.183,78.5017 121.5,79C 125.5,82.3333 125.5,85.6667 121.5,89C 118.183,89.4983 114.85,89.665 111.5,89.5C 111.5,85.8333 111.5,82.1667 111.5,78.5 Z"/></g>
<g><path style="opacity:1" fill="#f97e84" d="M 182.5,78.5 C 199.445,78.4418 207.279,86.7751 206,103.5C 199.892,117.982 189.725,121.815 175.5,115C 167.535,108.077 165.368,99.5775 169,89.5C 172.336,84.2685 176.836,80.6018 182.5,78.5 Z"/></g>
<g><path style="opacity:1" fill="#f87d84" d="M 261.5,78.5 C 276.848,78.6822 284.681,86.3489 285,101.5C 280.325,116.622 270.492,121.456 255.5,116C 244.958,108.455 242.792,98.9552 249,87.5C 252.299,83.1179 256.466,80.1179 261.5,78.5 Z"/></g>
<g><path style="opacity:1" fill="#050202" d="M 54.5,98.5 C 61.0042,100.831 65.8375,105.164 69,111.5C 72.9853,126.444 67.8187,136.444 53.5,141.5C 37.3069,142.912 28.3069,135.579 26.5,119.5C 29.2052,103.802 38.5386,96.8023 54.5,98.5 Z"/></g>
<g><path style="opacity:1" fill="#050303" d="M 456.5,98.5 C 476.498,96.7141 485.665,105.714 484,125.5C 479.276,138.284 470.109,143.451 456.5,141C 441.431,133.694 437.598,122.528 445,107.5C 448.183,103.462 452.016,100.462 456.5,98.5 Z"/></g>
<g><path style="opacity:1" fill="#f97e85" d="M 111.5,104.5 C 116.511,104.334 121.511,104.501 126.5,105C 130.957,110.135 130.29,114.468 124.5,118C 120.179,118.499 115.846,118.666 111.5,118.5C 111.5,113.833 111.5,109.167 111.5,104.5 Z"/></g>
<g><path style="opacity:1" fill="#dfdfdf" d="M 44.5,113.5 C 55.2622,112.739 57.9289,116.905 52.5,126C 41.8594,126.882 39.1927,122.715 44.5,113.5 Z"/></g>
<g><path style="opacity:1" fill="#e6e6e6" d="M 459.5,113.5 C 469.818,113.322 472.151,117.489 466.5,126C 456.102,126.471 453.768,122.305 459.5,113.5 Z"/></g>
<g><path style="opacity:1" fill="#e8e8e8" d="M 34.5,167.5 C 181.5,167.5 328.5,167.5 475.5,167.5C 476.594,184.026 469.094,193.693 453,196.5C 444.566,195.869 438.066,192.036 433.5,185C 430.634,183.543 427.634,183.21 424.5,184C 410.447,200.511 396.447,200.511 382.5,184C 379.366,183.21 376.366,183.543 373.5,185C 364.533,196.877 353.533,199.21 340.5,192C 338.126,189.961 336.126,187.628 334.5,185C 331.634,183.543 328.634,183.21 325.5,184C 311.465,200.579 297.465,200.579 283.5,184C 280.366,183.21 277.366,183.543 274.5,185C 266.307,196.066 255.973,198.733 243.5,193C 240.167,191 237.5,188.333 235.5,185C 232.634,183.543 229.634,183.21 226.5,184C 212.581,200.651 198.581,200.651 184.5,184C 181.77,183.272 179.103,183.438 176.5,184.5C 162.554,200.625 148.888,200.458 135.5,184C 132.833,183.333 130.167,183.333 127.5,184C 114,200.398 100.334,200.565 86.5,184.5C 83.8971,183.438 81.2305,183.272 78.5,184C 67.5578,198.01 55.0578,199.843 41,189.5C 36.3237,182.966 34.157,175.632 34.5,167.5 Z"/></g>
<g><path style="opacity:1" fill="#c38b78" d="M 75.5,454.5 C 75.5,371.833 75.5,289.167 75.5,206.5C 77.5715,205.046 79.7381,203.713 82,202.5C 98.3229,214.441 114.656,214.441 131,202.5C 147.716,214.442 164.383,214.442 181,202.5C 197.323,214.441 213.656,214.441 230,202.5C 241.445,210.82 253.945,212.987 267.5,209C 271.73,206.968 275.896,204.802 280,202.5C 296.323,214.441 312.656,214.441 329,202.5C 336.167,207.667 344.167,210.667 353,211.5C 362.472,210.677 371.139,207.677 379,202.5C 395.323,214.441 411.656,214.441 428,202.5C 433.245,206.371 439.078,209.038 445.5,210.5C 446.5,291.831 446.833,373.164 446.5,454.5C 439.833,454.5 433.167,454.5 426.5,454.5C 426.667,381.499 426.5,308.499 426,235.5C 424.786,233.951 423.286,232.785 421.5,232C 384.167,231.333 346.833,231.333 309.5,232C 308.333,233.167 307.167,234.333 306,235.5C 305.5,308.499 305.333,381.499 305.5,454.5C 228.833,454.5 152.167,454.5 75.5,454.5 Z"/></g>
<g><path style="opacity:1" fill="#bb7b62" d="M 75.5,206.5 C 75.5,289.167 75.5,371.833 75.5,454.5C 71.5,454.5 67.5,454.5 63.5,454.5C 63.1667,373.164 63.5,291.831 64.5,210.5C 68.3372,209.555 72.0038,208.222 75.5,206.5 Z"/></g>
<g><path style="opacity:1" fill="#020101" d="M 145.5,409.5 C 145.327,405.83 146.993,403.33 150.5,402C 191.499,401.5 232.499,401.333 273.5,401.5C 274.499,350.003 274.832,298.336 274.5,246.5C 215.998,246.168 157.664,246.501 99.5,247.5C 99.5,298.833 99.5,350.167 99.5,401.5C 106.175,401.334 112.842,401.5 119.5,402C 123.062,403.308 125.062,405.808 125.5,409.5C 125.16,412.675 123.493,414.841 120.5,416C 109.833,416.667 99.1667,416.667 88.5,416C 86.9512,414.786 85.7845,413.286 85,411.5C 84.3333,353.167 84.3333,294.833 85,236.5C 85.8333,234.333 87.3333,232.833 89.5,232C 154.167,231.333 218.833,231.333 283.5,232C 285.939,232.774 287.773,234.274 289,236.5C 289.667,294.833 289.667,353.167 289,411.5C 288.167,413.667 286.667,415.167 284.5,416C 239.5,416.667 194.5,416.667 149.5,416C 147.077,414.429 145.744,412.263 145.5,409.5 Z"/></g>
<g><path style="opacity:1" fill="#786c77" d="M 99.5,247.5 C 157.5,247.5 215.5,247.5 273.5,247.5C 273.5,298.833 273.5,350.167 273.5,401.5C 232.499,401.333 191.499,401.5 150.5,402C 146.993,403.33 145.327,405.83 145.5,409.5C 138.833,409.5 132.167,409.5 125.5,409.5C 125.062,405.808 123.062,403.308 119.5,402C 112.842,401.5 106.175,401.334 99.5,401.5C 99.5,350.167 99.5,298.833 99.5,247.5 Z"/></g>
<g><path style="opacity:1" fill="#645964" d="M 99.5,247.5 C 157.664,246.501 215.998,246.168 274.5,246.5C 274.832,298.336 274.499,350.003 273.5,401.5C 273.5,350.167 273.5,298.833 273.5,247.5C 215.5,247.5 157.5,247.5 99.5,247.5 Z"/></g>
<g><path style="opacity:1" fill="#796c78" d="M 320.5,246.5 C 350.833,246.5 381.167,246.5 411.5,246.5C 411.5,315.833 411.5,385.167 411.5,454.5C 381.167,454.5 350.833,454.5 320.5,454.5C 320.5,385.167 320.5,315.833 320.5,246.5 Z"/></g>
<g><path style="opacity:1" fill="#020203" d="M 115.5,257.5 C 163.893,257.014 212.226,257.514 260.5,259C 261.701,259.903 262.535,261.069 263,262.5C 263.988,304.251 263.655,345.917 262,387.5C 261.167,388.333 260.333,389.167 259.5,390C 211.167,390.667 162.833,390.667 114.5,390C 113.333,388.833 112.167,387.667 111,386.5C 110.333,345.167 110.333,303.833 111,262.5C 112.025,260.313 113.525,258.646 115.5,257.5 Z"/></g>
<g><path style="opacity:1" fill="#050405" d="M 335.5,257.5 C 355.503,257.333 375.503,257.5 395.5,258C 398,259.167 399.833,261 401,263.5C 401.667,312.5 401.667,361.5 401,410.5C 400.315,413.057 398.815,414.891 396.5,416C 376.167,416.667 355.833,416.667 335.5,416C 333.448,415.07 331.948,413.57 331,411.5C 330.333,362.167 330.333,312.833 331,263.5C 332.332,261.34 333.832,259.34 335.5,257.5 Z"/></g>
<g><path style="opacity:1" fill="#afc8cb" d="M 125.5,273.5 C 166.33,272.501 207.33,272.168 248.5,272.5C 248.832,307.004 248.498,341.337 247.5,375.5C 247.5,341.5 247.5,307.5 247.5,273.5C 206.833,273.5 166.167,273.5 125.5,273.5 Z"/></g>
<g><path style="opacity:1" fill="#d3f2f5" d="M 125.5,273.5 C 166.167,273.5 206.833,273.5 247.5,273.5C 247.5,307.5 247.5,341.5 247.5,375.5C 206.833,375.5 166.167,375.5 125.5,375.5C 125.5,341.5 125.5,307.5 125.5,273.5 Z"/></g>
<g><path style="opacity:1" fill="#ceebef" d="M 345.5,272.5 C 359.167,272.5 372.833,272.5 386.5,272.5C 386.5,315.5 386.5,358.5 386.5,401.5C 372.833,401.5 359.167,401.5 345.5,401.5C 345.5,358.5 345.5,315.5 345.5,272.5 Z"/></g>
<g><path style="opacity:1" fill="#6abf8e" d="M 485.5,470.5 C 351.166,470.333 216.833,470.5 82.5,471C 77.2432,478.97 77.2432,486.97 82.5,495C 216.833,495.5 351.166,495.667 485.5,495.5C 332.001,496.666 178.334,496.833 24.5,496C 15.4523,492.186 12.619,485.686 16,476.5C 18.2643,473.567 21.0976,471.4 24.5,470C 178.334,469.167 332.001,469.334 485.5,470.5 Z"/></g>
<g><path style="opacity:1" fill="#9ae59c" d="M 485.5,470.5 C 492.083,471.753 495.416,475.753 495.5,482.5C 495.267,489.33 491.934,493.663 485.5,495.5C 351.166,495.667 216.833,495.5 82.5,495C 77.2432,486.97 77.2432,478.97 82.5,471C 216.833,470.5 351.166,470.333 485.5,470.5 Z"/></g>
</svg>
